<svg width="22" height="22" viewBox="0 0 22 22" fill="none" xmlns="http://www.w3.org/2000/svg">
<path d="M11.0439 0.744995C9.0202 0.744995 7.04197 1.34509 5.35933 2.4694C3.67668 3.59371 2.36521 5.19172 1.59077 7.06138C0.816335 8.93103 0.613691 10.9883 1.0085 12.9732C1.4033 14.958 2.37782 16.7811 3.80879 18.2121C5.23976 19.6431 7.06299 20.6176 9.0478 21.0124C11.0326 21.4072 13.0899 21.2046 14.9595 20.4301C16.8292 19.6557 18.4273 18.3442 19.5516 16.6616C20.6759 14.9789 21.276 13.0007 21.276 10.977C21.276 8.2633 20.198 5.66075 18.2791 3.74188C16.3603 1.82301 13.7576 0.744995 11.0439 0.744995Z" fill="#CA163F"/>
<path d="M9.64294 12.438H7.84302V9.938H9.64294V9.175C9.64294 6.492 11.123 5.336 13.089 5.336C14.1319 5.34834 15.1588 5.5933 16.095 6.053L15.2159 8.342C14.8133 8.13712 14.3722 8.01891 13.921 7.995C13.274 7.995 12.7419 8.319 12.7419 9.521V9.938H15.6331V12.438H12.7419V21.481H9.64197L9.64294 12.438Z" fill="white"/>
</svg>
