<svg width="21" height="22" viewBox="0 0 21 22" fill="none" xmlns="http://www.w3.org/2000/svg">
<path d="M10.479 0.744995C8.45526 0.744995 6.47703 1.34509 4.79438 2.4694C3.11174 3.59371 1.80027 5.19172 1.02583 7.06138C0.251393 8.93103 0.0487498 10.9883 0.443554 12.9732C0.838358 14.958 1.81288 16.7811 3.24385 18.2121C4.67482 19.6431 6.49792 20.6176 8.48274 21.0124C10.4676 21.4072 12.525 21.2046 14.3946 20.4301C16.2643 19.6557 17.8622 18.3442 18.9865 16.6616C20.1108 14.9789 20.711 13.0007 20.711 10.977C20.711 8.2633 19.6329 5.66075 17.7141 3.74188C15.7952 1.82301 13.1926 0.744995 10.479 0.744995Z" fill="#CA163F"/>
<path d="M13.731 6.87799C13.5635 6.87799 13.3997 6.92767 13.2604 7.02074C13.1211 7.11381 13.0126 7.24609 12.9485 7.40086C12.8844 7.55563 12.8676 7.72593 12.9003 7.89023C12.933 8.05453 13.0137 8.20545 13.1321 8.32391C13.2506 8.44236 13.4015 8.52304 13.5658 8.55572C13.7301 8.5884 13.9004 8.57162 14.0552 8.50751C14.21 8.44341 14.3423 8.33485 14.4353 8.19556C14.5284 8.05627 14.578 7.89251 14.578 7.72499C14.578 7.50035 14.4888 7.28492 14.33 7.12607C14.1711 6.96723 13.9556 6.87799 13.731 6.87799Z" fill="white"/>
<path d="M10.4799 14.931C9.79111 14.931 9.11776 14.7267 8.545 14.3441C7.97225 13.9614 7.52582 13.4175 7.26217 12.7811C6.99852 12.1447 6.92949 11.4445 7.0638 10.7689C7.19811 10.0933 7.5298 9.47265 8.01681 8.9855C8.50381 8.49835 9.12432 8.16655 9.79989 8.03204C10.4755 7.89754 11.1756 7.96637 11.8121 8.22984C12.4485 8.49331 12.9926 8.93957 13.3754 9.51222C13.7583 10.0849 13.9628 10.7582 13.963 11.447C13.9622 12.3706 13.595 13.2562 12.942 13.9093C12.289 14.5625 11.4035 14.9299 10.4799 14.931ZM10.4799 9.063C10.0084 9.063 9.54752 9.20282 9.15548 9.46478C8.76343 9.72673 8.45787 10.0991 8.27743 10.5347C8.09699 10.9703 8.04982 11.4496 8.14181 11.9121C8.23379 12.3745 8.46086 12.7993 8.79427 13.1327C9.12768 13.4661 9.5524 13.6932 10.0149 13.7852C10.4773 13.8772 10.9567 13.83 11.3923 13.6495C11.8279 13.4691 12.2003 13.1635 12.4622 12.7715C12.7242 12.3794 12.864 11.9185 12.864 11.447C12.8632 10.815 12.6118 10.209 12.1649 9.76213C11.718 9.31522 11.112 9.06379 10.4799 9.063Z" fill="white"/>
<path d="M13.5229 17.905H7.43604C6.61074 17.9039 5.81953 17.5756 5.23596 16.992C4.65239 16.4085 4.32406 15.6173 4.323 14.792V8.10199C4.32406 7.27679 4.65236 6.4857 5.23596 5.90229C5.81956 5.31888 6.61083 4.99078 7.43604 4.98999H13.5229C14.3481 4.99078 15.1392 5.31891 15.7227 5.90235C16.3061 6.48579 16.6342 7.27688 16.635 8.10199V14.792C16.6342 15.6172 16.3061 16.4084 15.7227 16.992C15.1392 17.5756 14.3482 17.9039 13.5229 17.905ZM7.43604 6.08899C6.90222 6.08952 6.39037 6.30174 6.01282 6.67911C5.63526 7.05648 5.42279 7.56818 5.422 8.10199V14.792C5.42279 15.3258 5.63526 15.8375 6.01282 16.2149C6.39037 16.5922 6.90222 16.8045 7.43604 16.805H13.5229C14.0567 16.8045 14.5684 16.5922 14.9458 16.2148C15.3232 15.8374 15.5355 15.3257 15.536 14.792V8.10199C15.5355 7.56827 15.3232 7.05656 14.9458 6.67917C14.5684 6.30177 14.0567 6.08952 13.5229 6.08899H7.43604Z" fill="white"/>
</svg>
